<?xml version="1.0" encoding="UTF-8"?>
<svg id="Capa_2" data-name="Capa 2" xmlns="http://www.w3.org/2000/svg" viewBox="0 0 614.15 459.82">
  <defs>
    <style>
      .cls-1 {
        fill: #250c68;
      }

      .cls-2 {
        fill: #5030f5;
      }

      .cls-3 {
        fill: #ffaf44;
      }
    </style>
  </defs>
  <g id="Capa_1-2" data-name="Capa 1">
    <g>
      <path class="cls-2" d="M588.53,214.6l-109.8,109.8-61.86-61.86c-.63,11.59-5.65,22.95-15.09,31.42-16.95,15.21-43.08,15.39-60.23,.41-20.04-17.52-20.81-48.01-2.3-66.52,8.25-8.25,18.86-12.66,29.67-13.24l-61.86-61.86,61.86-61.86c.63,11.59,5.65,22.95,15.09,31.42,16.95,15.21,43.08,15.39,60.23,.4,20.04-17.52,20.81-48.01,2.3-66.52-8.25-8.25-18.86-12.66-29.67-13.24h0c34.16-34.16,89.55-34.16,123.71,0l47.94,47.94c34.16,34.16,34.16,89.55,0,123.71Z"/>
      <path class="cls-1" d="M245.22,434.2l-109.8-109.8,61.86-61.86c-11.59-.63-22.95-5.65-31.42-15.09-15.21-16.95-15.39-43.08-.41-60.23,17.52-20.04,48.01-20.81,66.52-2.3,8.25,8.25,12.66,18.86,13.24,29.67l61.86-61.86,61.86,61.86c-11.59,.63-22.95,5.65-31.42,15.09-15.21,16.95-15.39,43.08-.4,60.23,17.52,20.04,48.01,20.81,66.52,2.3,8.25-8.25,12.66-18.86,13.24-29.67l61.86,61.86-109.8,109.8c-34.16,34.16-89.55,34.16-123.71,0Z"/>
      <path class="cls-3" d="M25.62,90.88l47.94-47.94c34.16-34.16,89.55-34.16,123.71,0h0c.63-11.59,5.65-22.95,15.09-31.42,16.95-15.21,43.08-15.39,60.23-.41,20.04,17.52,20.81,48.01,2.3,66.52-8.25,8.25-18.86,12.66-29.67,13.24l61.86,61.86-61.86,61.86c-.63-11.59-5.65-22.95-15.09-31.42-16.95-15.21-43.08-15.39-60.23-.4-20.04,17.52-20.81,48.01-2.3,66.52,8.25,8.25,18.86,12.66,29.67,13.24l-61.86,61.86L25.62,214.6c-34.16-34.16-34.16-89.55,0-123.71Z"/>
    </g>
  </g>
</svg>