<?xml version="1.0" encoding="UTF-8"?>
<svg id="Capa_2" data-name="Capa 2" xmlns="http://www.w3.org/2000/svg" viewBox="0 0 1659.76 203.63">
  <defs>
    <style>
      .cls-1 {
        fill: #250c68;
      }

      .cls-2 {
        fill: #5030f5;
      }
    </style>
  </defs>
  <g id="Capa_1-2" data-name="Capa 1">
    <g>
      <g>
        <path class="cls-1" d="M0,203.63V0H154.36V41.58H50.41v36.45h89.14v39.3H50.41v43.57h105.66v42.72H0Z"/>
        <path class="cls-1" d="M178.85,203.63V0h67.78l24.78,89.14,11.68,46.42h.57c5.31-22.4,9.11-37.88,11.39-46.42L320.11,0h68.35V203.63h-46.14V101.1l.85-40.73h-.57c-4.75,20.32-7.88,32.94-9.4,37.88l-29.33,105.37h-41.58l-29.05-105.09-9.4-38.16h-.57c.57,21.84,.85,35.51,.85,41.01v102.24h-45.28Z"/>
        <path class="cls-1" d="M416.37,203.63V0h91.7c23.92,0,42.43,6.27,55.54,18.8,13.67,12.72,20.5,29.43,20.5,50.12s-6.31,35.79-18.94,48.13c-12.63,12.34-29.29,18.51-49.98,18.51h-47.56v68.07h-51.26Zm51.26-107.94h37.31c8.92,0,15.9-2.46,20.93-7.4,5.03-4.94,7.55-11.49,7.55-19.65s-2.52-14.57-7.55-19.22c-5.03-4.65-12.01-6.98-20.93-6.98h-37.31v53.26Z"/>
        <path class="cls-1" d="M602.05,203.63V0h50.41V160.91h91.42v42.72h-141.83Z"/>
        <path class="cls-1" d="M762.96,203.63V0h154.36V41.58h-103.95v36.45h89.14v39.3h-89.14v43.57h105.66v42.72h-156.07Z"/>
        <path class="cls-1" d="M928.99,203.63L1002.18,0h51.83l73.48,203.63h-52.97l-11.96-36.74h-71.2l-11.68,36.74h-50.69Zm74.05-72.91h47.85l-15.38-49.27-7.97-28.76h-.57c-3.23,12.15-5.98,21.74-8.26,28.76l-15.66,49.27Z"/>
      </g>
      <g>
        <path class="cls-2" d="M1166.22,203.63V42.72h-59.24V0h169.45V42.72h-59.81V203.63h-50.41Z"/>
        <path class="cls-2" d="M1295.23,203.63V0h154.36V41.58h-103.95v36.45h89.14v39.3h-89.14v43.57h105.66v42.72h-156.07Z"/>
        <path class="cls-2" d="M1461.26,203.63L1534.45,0h51.83l73.48,203.63h-52.97l-11.96-36.74h-71.2l-11.68,36.74h-50.69Zm74.05-72.91h47.85l-15.38-49.27-7.97-28.76h-.57c-3.23,12.15-5.98,21.74-8.26,28.76l-15.66,49.27Z"/>
      </g>
    </g>
  </g>
</svg>