<?xml version="1.0" encoding="UTF-8"?>
<svg id="Capa_2" data-name="Capa 2" xmlns="http://www.w3.org/2000/svg" viewBox="0 0 2818.12 994.94">
  <defs>
    <style>
      .cls-1 {
        fill: #250c68;
      }

      .cls-2 {
        fill: #fffa4d;
      }

      .cls-3 {
        fill: #5030f5;
      }

      .cls-4 {
        fill: #ffaf44;
      }
    </style>
  </defs>
  <g id="Capa_2-2" data-name="Capa 2">
    <rect class="cls-2" width="2818.12" height="994.94"/>
  </g>
  <g id="Capa_1-2" data-name="Capa 1">
    <g>
      <path class="cls-3" d="M838.86,509.25l-109.8,109.8-61.86-61.86c-.63,11.59-5.65,22.95-15.09,31.42-16.95,15.21-43.08,15.39-60.23,.41-20.04-17.52-20.81-48.01-2.3-66.52,8.25-8.25,18.86-12.66,29.67-13.24l-61.86-61.86,61.86-61.86c.63,11.59,5.65,22.95,15.09,31.42,16.95,15.21,43.08,15.39,60.23,.4,20.04-17.52,20.81-48.01,2.3-66.52-8.25-8.25-18.86-12.66-29.67-13.24h0c34.16-34.16,89.55-34.16,123.71,0l47.94,47.94c34.16,34.16,34.16,89.55,0,123.71Z"/>
      <path class="cls-1" d="M495.55,728.85l-109.8-109.8,61.86-61.86c-11.59-.63-22.95-5.65-31.42-15.09-15.21-16.95-15.39-43.08-.41-60.23,17.52-20.04,48.01-20.81,66.52-2.3,8.25,8.25,12.66,18.86,13.24,29.67l61.86-61.86,61.86,61.86c-11.59,.63-22.95,5.65-31.42,15.09-15.21,16.95-15.39,43.08-.4,60.23,17.52,20.04,48.01,20.81,66.52,2.3,8.25-8.25,12.66-18.86,13.24-29.67l61.86,61.86-109.8,109.8c-34.16,34.16-89.55,34.16-123.71,0Z"/>
      <path class="cls-4" d="M275.95,385.54l47.94-47.94c34.16-34.16,89.55-34.16,123.71,0h0c.63-11.59,5.65-22.95,15.09-31.42,16.95-15.21,43.08-15.39,60.23-.41,20.04,17.52,20.81,48.01,2.3,66.52-8.25,8.25-18.86,12.66-29.67,13.24l61.86,61.86-61.86,61.86c-.63-11.59-5.65-22.95-15.09-31.42-16.95-15.21-43.08-15.39-60.23-.4-20.04,17.52-20.81,48.01-2.3,66.52,8.25,8.25,18.86,12.66,29.67,13.24l-61.86,61.86-109.8-109.8c-34.16-34.16-34.16-89.55,0-123.71Z"/>
    </g>
    <g>
      <g>
        <path class="cls-1" d="M945.48,626.38v-203.63h154.36v41.58h-103.95v36.45h89.14v39.3h-89.14v43.57h105.66v42.72h-156.07Z"/>
        <path class="cls-1" d="M1124.33,626.38v-203.63h67.78l24.78,89.14,11.68,46.42h.57c5.31-22.4,9.11-37.88,11.39-46.42l25.06-89.14h68.35v203.63h-46.14v-102.53l.85-40.73h-.57c-4.75,20.32-7.88,32.94-9.4,37.88l-29.33,105.37h-41.58l-29.05-105.09-9.4-38.16h-.57c.57,21.84,.85,35.51,.85,41.01v102.24h-45.28Z"/>
        <path class="cls-1" d="M1361.85,626.38v-203.63h91.7c23.92,0,42.43,6.27,55.54,18.8,13.67,12.72,20.5,29.43,20.5,50.12s-6.31,35.79-18.94,48.13c-12.63,12.34-29.29,18.51-49.98,18.51h-47.56v68.07h-51.26Zm51.26-107.94h37.31c8.92,0,15.9-2.46,20.93-7.4,5.03-4.94,7.55-11.49,7.55-19.65s-2.52-14.57-7.55-19.22c-5.03-4.65-12.01-6.98-20.93-6.98h-37.31v53.26Z"/>
        <path class="cls-1" d="M1547.53,626.38v-203.63h50.41v160.91h91.42v42.72h-141.83Z"/>
        <path class="cls-1" d="M1708.44,626.38v-203.63h154.36v41.58h-103.95v36.45h89.14v39.3h-89.14v43.57h105.66v42.72h-156.07Z"/>
        <path class="cls-1" d="M1874.47,626.38l73.19-203.63h51.83l73.48,203.63h-52.97l-11.96-36.74h-71.2l-11.68,36.74h-50.69Zm74.05-72.91h47.85l-15.38-49.27-7.97-28.76h-.57c-3.23,12.15-5.98,21.74-8.26,28.76l-15.66,49.27Z"/>
      </g>
      <g>
        <path class="cls-3" d="M2111.7,626.38v-160.91h-59.24v-42.72h169.45v42.72h-59.81v160.91h-50.41Z"/>
        <path class="cls-3" d="M2240.71,626.38v-203.63h154.36v41.58h-103.95v36.45h89.14v39.3h-89.14v43.57h105.66v42.72h-156.07Z"/>
        <path class="cls-3" d="M2406.74,626.38l73.19-203.63h51.83l73.48,203.63h-52.97l-11.96-36.74h-71.2l-11.68,36.74h-50.69Zm74.05-72.91h47.85l-15.38-49.27-7.97-28.76h-.57c-3.23,12.15-5.98,21.74-8.26,28.76l-15.66,49.27Z"/>
      </g>
    </g>
  </g>
</svg>